# xmcd
#
# Track frame offsets: 
#        150
#        19304
#        29775
#        40520
#        50564
#        61095
#        72779
#        86924
#        99825
#        110419
#        133012
#        144329
#        157984
#        170945
#        183515
#        194171
#        204648
#        216578
#        227816
#        240344
#        253000
#        263813
#        275076
#        286380
#        297734
#        310798
#        322260
#        331360
#        343212
#        353699
#        368421
#
# Disc length: 5066 seconds
#
# Revision: 1
# Processed by: cddbd v1.5.2PL0 Copyright (c) Steve Scherf et al.
# Submitted via: ExactAudioCopyFreeDBPlugin 1.0
#
DISCID=f613c81f
DTITLE=Various Artist - Dim Lights, Thick Smoke and Hillbilly Music: Co
DTITLE=untry and Western Hit Parade 1967
DYEAR=2013
DGENRE=Country
TTITLE0=Bobbie Gentry - Ode To Billie Joe
TTITLE1=Johnny Darrell - Ruby (Don't Take Your Love To Town
TTITLE2=Waylon Jennings - Mental Revenge
TTITLE3=Jim Reeves - I Won't Come In While He's There
TTITLE4=George Hamilton IV - Break My Mind
TTITLE5=Leon Ashley - Laura (What's He Got That I Ain't Got)
TTITLE6=Merle Haggard - Branded Man
TTITLE7=Loretta Lynn - What Kind Of Girl (Do You Think I Am)
TTITLE8=Jim Ed Brown - Pop A Top
TTITLE9=Ray Price - Danny Boy
TTITLE10=Robert Mitchum - Little Ole Wine Drinker Me
TTITLE11=John Hartford - Gentle On My Mind
TTITLE12=Glen Campbell - By The Time I Get To Phoenix
TTITLE13=Marty Robbins - Tonight Carmen
TTITLE14=Mel Tillis - Life Turned Her That Way
TTITLE15=Buck Owens - Where Does The Good Times Go
TTITLE16=Skeeter Davis - What Does it Take (To Keep A Man Like You Sat
TTITLE16=isfied)
TTITLE17=Waylon Jennings - The Chokin' Kind
TTITLE18=Johnny Cash and June Carter - Jackson
TTITLE19=Merle Haggard - Sing Me Back Home
TTITLE20=Wanda Jackson - Tears Will Be The Chaser For Your Wine
TTITLE21=Jerry Reed - Guitar Man
TTITLE22=Norma Jean - Jackson Ain't A Very Big Town
TTITLE23=George Jones - Walk Through This World With Me
TTITLE24=David Houston and Tammy Wynette - My Elusive Dreams
TTITLE25=Wynn Stewart - It's Such A Pretty World Today
TTITLE26=Buck Owens - Sam's Place
TTITLE27=Tammy Wynette - I Don't Wanna Play House
TTITLE28=Charlie Pride - Does My Ring Hurt Your Finger
TTITLE29=Porter Wagoner - Cold Hard Facts Of Life
TTITLE30=The Lovin' Spoonful - Nashville Cats
EXTD=YEAR: 1967
EXTT0=
EXTT1=
EXTT2=
EXTT3=
EXTT4=
EXTT5=
EXTT6=
EXTT7=
EXTT8=
EXTT9=
EXTT10=
EXTT11=
EXTT12=
EXTT13=
EXTT14=
EXTT15=
EXTT16=
EXTT17=
EXTT18=
EXTT19=
EXTT20=
EXTT21=
EXTT22=
EXTT23=
EXTT24=
EXTT25=
EXTT26=
EXTT27=
EXTT28=
EXTT29=
EXTT30=
PLAYORDER=
